<svg xmlns="http://www.w3.org/2000/svg" viewBox="0 0 841.9 595.3">
  <g fill="#61DAFB">
    <path d="M666.3 296.5c0 52.9-43 95.9-95.9 95.9s-95.9-43-95.9-95.9 43-95.9 95.9-95.9 95.9 43 95.9 95.9zM667.4 296.5c0-53.5-43.4-96.9-96.9-96.9s-96.9 43.4-96.9 96.9 43.4 96.9 96.9 96.9 96.9-43.4 96.9-96.9z"/>
    <path d="M565.4 486.6c-41.5 0-81.1-6.1-116.7-17.6-35.6-11.5-67.6-28.2-94.6-49.6-27-21.4-49.2-47.1-65.7-76.2-16.5-29.1-27.2-61.2-31.7-95.1-4.5-33.9-2.2-68.7 6.8-102.7 9-34 24.2-66.2 44.7-95.2 20.5-29 45.7-54.2 75.1-74.2 29.4-20 62.2-34.7 97.2-43.2 35-8.5 71.7-10.7 108.2-6.6 36.5 4.1 72.1 14.1 105.2 29.7 33.1 15.6 63.2 36.7 89.2 62.5 26 25.8 47.7 56.2 63.7 90.2 16 34 25.7 70.2 28.7 107.2 3 37-1.2 74.7-12.5 111.2-11.3 36.5-29.2 70.7-52.7 101.2-23.5 30.5-52.2 56.2-85.2 76.2-33 20-69.2 34.7-107.2 43.2-38 8.5-77.7 10.7-117.2 6.6-39.5-4.1-78.1-14.1-114.2-29.7-36.1-15.6-69.2-36.7-98.2-62.5-29-25.8-54.2-56.2-74.2-90.2-20-34-34.7-70.2-43.2-107.2-8.5-37-10.7-74.7-6.6-111.2 4.1-36.5 14.1-72.1 29.7-105.2 15.6-33.1 36.7-63.2 62.5-89.2 25.8-26 56.2-47.7 90.2-63.7 34-16 70.2-25.7 107.2-28.7 37-3 74.7 1.2 111.2 12.5 36.5 11.3 70.7 29.2 101.2 52.7 30.5 23.5 56.2 52.2 76.2 85.2 20 33 34.7 69.2 43.2 107.2 8.5 38 10.7 77.7 6.6 117.2-4.1 39.5-14.1 78.1-29.7 114.2-15.6 36.1-36.7 69.2-62.5 98.2-25.8 29-56.2 54.2-90.2 74.2-34 20-70.2 34.7-107.2 43.2-37 8.5-74.7 10.7-111.2 6.6-36.5-4.1-72.1-14.1-105.2-29.7-33.1-15.6-63.2-36.7-89.2-62.5-26-25.8-47.7-56.2-63.7-90.2-16-34-25.7-70.2-28.7-107.2-3-37 1.2-74.7 12.5-111.2 11.3-36.5 29.2-70.7 52.7-101.2 23.5-30.5 52.2-56.2 85.2-76.2 33-20 69.2-34.7 107.2-43.2 38-8.5 77.7-10.7 117.2-6.6 39.5 4.1 78.1 14.1 114.2 29.7 36.1 15.6 69.2 36.7 98.2 62.5 29 25.8 54.2 56.2 74.2 90.2 20 34 34.7 70.2 43.2 107.2 8.5 37 10.7 74.7 6.6 111.2-4.1 36.5-14.1 72.1-29.7 105.2-15.6 33.1-36.7 63.2-62.5 89.2-25.8 26-56.2 47.7-90.2 63.7-34 16-70.2 25.7-107.2 28.7-37 3-74.7-1.2-111.2-12.5-36.5-11.3-70.7-29.2-101.2-52.7-30.5-23.5-56.2-52.2-76.2-85.2-20-33-34.7-69.2-43.2-107.2-8.5-38-10.7-77.7-6.6-117.2z"/>
  </g>
</svg> 